<svg xmlns="http://www.w3.org/2000/svg" xmlns:xlink="http://www.w3.org/1999/xlink" viewBox="0 0 664 376" width="664" height="376"><path d="M 172.000,212.000 C 189.000,212.000 189.000,212.000 206.000,212.000" stroke-width="4.213" stroke="black" fill="none" stroke-linecap="round"></path><path d="M 206.000,212.000 C 233.000,212.000 233.000,212.000 260.000,212.000" stroke-width="1.692" stroke="black" fill="none" stroke-linecap="round"></path><path d="M 260.000,212.000 C 286.500,212.000 286.500,212.000 313.000,212.000" stroke-width="1.401" stroke="black" fill="none" stroke-linecap="round"></path><path d="M 313.000,212.000 C 345.000,212.000 345.000,212.000 377.000,212.000" stroke-width="1.196" stroke="black" fill="none" stroke-linecap="round"></path><path d="M 377.000,212.000 C 384.629,211.017 384.500,212.000 392.000,212.000" stroke-width="2.001" stroke="black" fill="none" stroke-linecap="round"></path><path d="M 392.000,212.000 C 399.840,213.136 399.629,213.017 407.000,216.000" stroke-width="2.620" stroke="black" fill="none" stroke-linecap="round"></path><path d="M 407.000,216.000 C 421.183,217.870 414.840,219.136 422.000,224.000" stroke-width="2.694" stroke="black" fill="none" stroke-linecap="round"></path><path d="M 422.000,224.000 C 419.767,237.742 423.183,232.870 411.000,246.000" stroke-width="2.989" stroke="black" fill="none" stroke-linecap="round"></path><path d="M 411.000,246.000 C 382.735,268.573 385.267,270.242 353.000,289.000" stroke-width="1.327" stroke="black" fill="none" stroke-linecap="round"></path><path d="M 353.000,289.000 C 325.398,308.668 325.235,308.073 296.000,325.000" stroke-width="1.143" stroke="black" fill="none" stroke-linecap="round"></path><path d="M 296.000,325.000 C 275.322,335.338 275.898,336.168 254.000,344.000" stroke-width="1.381" stroke="black" fill="none" stroke-linecap="round"></path><path d="M 254.000,344.000 C 243.226,348.594 243.322,348.338 232.000,351.000" stroke-width="1.918" stroke="black" fill="none" stroke-linecap="round"></path><path d="M 232.000,351.000 C 221.980,352.616 222.226,353.094 212.000,353.000" stroke-width="2.382" stroke="black" fill="none" stroke-linecap="round"></path><path d="M 212.000,353.000 C 207.175,354.181 208.980,353.116 206.000,352.000" stroke-width="3.359" stroke="black" fill="none" stroke-linecap="round"></path><path d="M 206.000,352.000 C 203.633,345.663 203.675,347.681 205.000,340.000" stroke-width="3.312" stroke="black" fill="none" stroke-linecap="round"></path><path d="M 205.000,340.000 C 207.133,330.188 207.133,331.163 213.000,323.000" stroke-width="2.769" stroke="black" fill="none" stroke-linecap="round"></path><path d="M 213.000,323.000 C 227.759,305.554 227.133,305.688 245.000,291.000" stroke-width="1.710" stroke="black" fill="none" stroke-linecap="round"></path><path d="M 245.000,291.000 C 266.849,273.434 266.259,273.054 290.000,258.000" stroke-width="1.412" stroke="black" fill="none" stroke-linecap="round"></path><path d="M 290.000,258.000 C 298.796,253.050 298.349,252.434 308.000,249.000" stroke-width="2.026" stroke="black" fill="none" stroke-linecap="round"></path><path d="M 308.000,249.000 C 323.733,241.422 323.796,242.050 340.000,236.000" stroke-width="1.904" stroke="black" fill="none" stroke-linecap="round"></path><path d="M 340.000,236.000 C 345.006,235.555 344.733,234.422 350.000,235.000" stroke-width="2.812" stroke="black" fill="none" stroke-linecap="round"></path></svg>